<svg width="20" height="20" viewBox="0 0 20 20" fill="none" xmlns="http://www.w3.org/2000/svg">
<g filter="url(#filter0_d_19697_519)">
<path d="M4.99999 15.8334H8.33332M15 15.8409V15.8334M1.66666 5.00002C1.66666 2.24169 2.24166 1.66669 4.99999 1.66669H15C17.7583 1.66669 18.3333 2.24169 18.3333 5.00002V15C18.3333 17.7584 17.7583 18.3334 15 18.3334H4.99999C2.24166 18.3334 1.66666 17.7584 1.66666 15V5.00002Z" stroke="#101828" stroke-width="1.5" stroke-linecap="round" stroke-linejoin="round"/>
<path d="M9.99999 11.6667C11.8409 11.6667 13.3333 10.1743 13.3333 8.33333C13.3333 6.49238 11.8409 5 9.99999 5C8.15904 5 6.66666 6.49238 6.66666 8.33333C6.66666 10.1743 8.15904 11.6667 9.99999 11.6667Z" stroke="#101828" stroke-width="1.5" stroke-linecap="round" stroke-linejoin="round"/>
<path d="M12.9166 8.33335H14.1666M9.99998 11.25V12.5M7.08331 8.33335H5.83331M9.99998 5.41669V4.16669" stroke="#101828" stroke-width="1.5" stroke-linecap="round" stroke-linejoin="round"/>
</g>
<defs>
<filter id="filter0_d_19697_519" x="-3.08334" y="0.916687" width="26.1667" height="26.1667" filterUnits="userSpaceOnUse" color-interpolation-filters="sRGB">
<feFlood flood-opacity="0" result="BackgroundImageFix"/>
<feColorMatrix in="SourceAlpha" type="matrix" values="0 0 0 0 0 0 0 0 0 0 0 0 0 0 0 0 0 0 127 0" result="hardAlpha"/>
<feOffset dy="4"/>
<feGaussianBlur stdDeviation="2"/>
<feComposite in2="hardAlpha" operator="out"/>
<feColorMatrix type="matrix" values="0 0 0 0 0 0 0 0 0 0 0 0 0 0 0 0 0 0 0.25 0"/>
<feBlend mode="normal" in2="BackgroundImageFix" result="effect1_dropShadow_19697_519"/>
<feBlend mode="normal" in="SourceGraphic" in2="effect1_dropShadow_19697_519" result="shape"/>
</filter>
</defs>
</svg>
