<svg width="20" height="20" viewBox="0 0 20 20" fill="none" xmlns="http://www.w3.org/2000/svg">
<path d="M8.75 2.875C8.75 2.70924 8.81585 2.55027 8.93306 2.43306C9.05027 2.31585 9.20924 2.25 9.375 2.25H18.125C18.2908 2.25 18.4497 2.31585 18.5669 2.43306C18.6842 2.55027 18.75 2.70924 18.75 2.875V4.125C18.75 4.29076 18.6842 4.44973 18.5669 4.56694C18.4497 4.68415 18.2908 4.75 18.125 4.75H9.375C9.20924 4.75 9.05027 4.68415 8.93306 4.56694C8.81585 4.44973 8.75 4.29076 8.75 4.125V2.875ZM5.58794e-08 14.75C5.58794e-08 13.7554 0.395088 12.8016 1.09835 12.0983C1.80161 11.3951 2.75544 11 3.75 11C4.74456 11 5.69839 11.3951 6.40165 12.0983C7.10491 12.8016 7.5 13.7554 7.5 14.75C7.5 15.7446 7.10491 16.6984 6.40165 17.4017C5.69839 18.1049 4.74456 18.5 3.75 18.5C2.75544 18.5 1.80161 18.1049 1.09835 17.4017C0.395088 16.6984 5.58794e-08 15.7446 5.58794e-08 14.75ZM8.75 12.875C8.75 12.7092 8.81585 12.5503 8.93306 12.4331C9.05027 12.3158 9.20924 12.25 9.375 12.25H18.125C18.2908 12.25 18.4497 12.3158 18.5669 12.4331C18.6842 12.5503 18.75 12.7092 18.75 12.875V14.125C18.75 14.2908 18.6842 14.4497 18.5669 14.5669C18.4497 14.6842 18.2908 14.75 18.125 14.75H9.375C9.20924 14.75 9.05027 14.6842 8.93306 14.5669C8.81585 14.4497 8.75 14.2908 8.75 14.125V12.875ZM8.75 6.625C8.75 6.45924 8.81585 6.30027 8.93306 6.18306C9.05027 6.06585 9.20924 6 9.375 6H15.625C15.7908 6 15.9497 6.06585 16.0669 6.18306C16.1842 6.30027 16.25 6.45924 16.25 6.625C16.25 6.79076 16.1842 6.94973 16.0669 7.06694C15.9497 7.18415 15.7908 7.25 15.625 7.25H9.375C9.20924 7.25 9.05027 7.18415 8.93306 7.06694C8.81585 6.94973 8.75 6.79076 8.75 6.625ZM8.75 16.625C8.75 16.4592 8.81585 16.3003 8.93306 16.1831C9.05027 16.0658 9.20924 16 9.375 16H15.625C15.7908 16 15.9497 16.0658 16.0669 16.1831C16.1842 16.3003 16.25 16.4592 16.25 16.625C16.25 16.7908 16.1842 16.9497 16.0669 17.0669C15.9497 17.1842 15.7908 17.25 15.625 17.25H9.375C9.20924 17.25 9.05027 17.1842 8.93306 17.0669C8.81585 16.9497 8.75 16.7908 8.75 16.625ZM3.75 1C3.25754 1 2.76991 1.097 2.31494 1.28545C1.85997 1.47391 1.44657 1.75013 1.09835 2.09835C0.75013 2.44657 0.473907 2.85997 0.285452 3.31494C0.0969966 3.76991 0 4.25754 0 4.75C0 5.24246 0.0969966 5.73009 0.285452 6.18506C0.473907 6.64003 0.75013 7.05343 1.09835 7.40165C1.44657 7.74987 1.85997 8.02609 2.31494 8.21455C2.76991 8.403 3.25754 8.5 3.75 8.5C4.74456 8.5 5.69839 8.10491 6.40165 7.40165C7.10491 6.69839 7.5 5.74456 7.5 4.75C7.5 3.75544 7.10491 2.80161 6.40165 2.09835C5.69839 1.39509 4.74456 1 3.75 1ZM3.75 6.625C3.25272 6.625 2.77581 6.42746 2.42417 6.07583C2.07254 5.72419 1.875 5.24728 1.875 4.75C1.875 4.25272 2.07254 3.77581 2.42417 3.42417C2.77581 3.07254 3.25272 2.875 3.75 2.875C4.24728 2.875 4.72419 3.07254 5.07583 3.42417C5.42746 3.77581 5.625 4.25272 5.625 4.75C5.625 5.24728 5.42746 5.72419 5.07583 6.07583C4.72419 6.42746 4.24728 6.625 3.75 6.625Z" fill="#101828"/>
</svg>
